<svg xmlns="http://www.w3.org/2000/svg" viewBox="0 0 1000 595" font-family="Helvetica Neue, Arial, sans-serif">
  <defs>
    <style>
      .h1{font-size:30px;font-weight:700;fill:#111}
      .sub{font-size:14px;fill:#666}
      .h2{font-size:20px;font-weight:700;fill:#fff}
      .hsub{font-size:13px;fill:#cfe2ff}
      .intent{font-size:15px;fill:#222;font-weight:600}
      .panel{fill:#fff;stroke:#222;stroke-width:2}
      .block{fill:#e6e8eb}
      .blockd{fill:#d2d6da}
      .new{fill:#e8f1ff;stroke:#1f6feb;stroke-width:2}
      .newsolid{fill:#1f6feb}
      .lead{stroke:#9aa0a6;stroke-width:1;fill:none}
      .cap{font-size:12.5px;fill:#555;font-weight:600}
      .notebox{fill:#eef1f4;stroke:#cdd3da;stroke-width:1}
      .bullet{font-size:13px;fill:#333}
      .at{font-size:13px;font-weight:700;fill:#111}
    </style>
    <marker id="arr" markerWidth="9" markerHeight="9" refX="7" refY="4.5" orient="auto">
      <path d="M0,0 L9,4.5 L0,9 z" fill="#1f6feb"/>
    </marker>
  </defs>

  <rect width="1000" height="595" fill="#f7f7f8"/>
  <text x="40" y="46" class="h1">Weaver · Foldable Features</text>
  <text x="40" y="70" class="sub">Wireframe 3 of 3 — Fire-and-Fold. Low-fidelity layout intent. Blue = new elements.</text>
  <line x1="40" y1="86" x2="960" y2="86" stroke="#dcdfe3"/>

  <g transform="translate(0,110)">
    <rect x="40" y="0" width="920" height="46" rx="10" class="newsolid"/>
    <text x="62" y="30" class="h2">03 — Fire-and-Fold</text>
    <text x="938" y="29" text-anchor="end" class="hsub">handoff: inner screen → cover screen</text>
    <text x="40" y="80" class="intent">Fire a prompt, fold the phone, the cover screen tracks it to completion.</text>

    <!-- F1 inner: fire -->
    <g transform="translate(60,100)">
      <rect x="0" y="0" width="180" height="150" rx="12" class="panel"/>
      <rect x="16" y="18" width="148" height="40" class="block"/>
      <rect x="16" y="92" width="120" height="26" rx="13" class="new"/>
      <text x="26" y="109" font-size="10" fill="#1f6feb">make it bolder</text>
      <circle cx="150" cy="105" r="13" class="newsolid"/>
      <rect x="16" y="126" width="148" height="16" rx="8" fill="#dbe9ff"/>
      <text x="24" y="138" font-size="9.5" fill="#1f6feb">↻ keeps running if you fold</text>
      <text x="90" y="172" text-anchor="middle" class="cap">1 · fire the prompt</text>
    </g>
    <line x1="250" y1="175" x2="300" y2="175" class="lead" stroke="#1f6feb" stroke-width="1.6" marker-end="url(#arr)"/>

    <!-- F2 folded cover: progress -->
    <g transform="translate(312,118)">
      <rect x="0" y="0" width="116" height="116" rx="12" class="panel"/>
      <circle cx="30" cy="34" r="13" fill="#d6e6ff"/>
      <circle cx="30" cy="34" r="8" class="newsolid"/>
      <text x="50" y="31" font-size="10" fill="#222" font-weight="700">Weaver</text>
      <text x="50" y="44" font-size="9" fill="#666">Generating…</text>
      <rect x="16" y="62" width="84" height="10" rx="5" fill="#e6e8eb"/>
      <rect x="16" y="62" width="50" height="10" rx="5" class="newsolid"/>
      <text x="58" y="94" text-anchor="middle" font-size="9.5" fill="#666">cover screen</text>
      <text x="58" y="150" text-anchor="middle" class="cap">2 · folded — progress</text>
    </g>
    <line x1="440" y1="175" x2="490" y2="175" class="lead" stroke="#1f6feb" stroke-width="1.6" marker-end="url(#arr)"/>

    <!-- F3 cover ready -->
    <g transform="translate(502,118)">
      <rect x="0" y="0" width="116" height="116" rx="12" class="panel"/>
      <circle cx="30" cy="36" r="13" fill="#1f6feb"/>
      <path d="M25,36 l4,4 l7,-8" stroke="#fff" stroke-width="2.4" fill="none" stroke-linecap="round"/>
      <text x="50" y="33" font-size="10" fill="#222" font-weight="700">Design ready</text>
      <text x="50" y="46" font-size="9" fill="#666">tap to open</text>
      <rect x="16" y="66" width="84" height="30" rx="6" class="new"/>
      <text x="58" y="85" text-anchor="middle" font-size="9.5" fill="#1f6feb">Open ›</text>
      <text x="58" y="150" text-anchor="middle" class="cap">3 · complete</text>
    </g>
    <line x1="630" y1="175" x2="680" y2="175" class="lead" stroke="#1f6feb" stroke-width="1.6" marker-end="url(#arr)"/>

    <!-- F4 unfold result -->
    <g transform="translate(692,100)">
      <rect x="0" y="0" width="180" height="150" rx="12" class="panel"/>
      <rect x="16" y="18" width="120" height="16" class="blockd"/>
      <rect x="16" y="42" width="148" height="56" class="block"/>
      <rect x="16" y="106" width="80" height="14" class="blockd"/>
      <circle cx="150" cy="120" r="16" fill="#1f6feb"/>
      <path d="M143,120 l5,5 l9,-10" stroke="#fff" stroke-width="2.4" fill="none" stroke-linecap="round"/>
      <text x="90" y="172" text-anchor="middle" class="cap">4 · unfold onto the result</text>
    </g>

    <!-- notes -->
    <g transform="translate(0,300)">
      <rect x="60" y="0" width="880" height="172" rx="10" class="notebox"/>
      <text x="80" y="28" class="at">Needs-thinking</text>
      <text x="80" y="52" class="bullet">•  The remote session owns the generation — it survives the WebView / Activity dying on fold.</text>
      <text x="80" y="74" class="bullet">•  onStop(Folded) → HandoffCoordinator guarantees keep-alive, or marks the task Not-Survivable.</text>
      <text x="80" y="96" class="bullet">•  v1: rich progress notification (the cover screen renders notifications natively — reliable).</text>
      <text x="80" y="118" class="bullet">•  v2: a dedicated cover-screen surface — gated on the per-app "continue on cover" permission.</text>
      <text x="80" y="140" class="bullet">•  onStart → reconcile which tasks finished while away; a stale session shows "expired — re-run?".</text>
      <text x="80" y="162" class="bullet">•  Local-only transport at fold time → either promote to remote first, or warn it won't survive.</text>
    </g>
  </g>
</svg>
